<?xml version="1.0" encoding="UTF-8"?>
<svg width="512px" height="512px" viewBox="0 0 512 512" version="1.1" xmlns="http://www.w3.org/2000/svg" xmlns:xlink="http://www.w3.org/1999/xlink">
    <!-- Generator: Sketch 48.1 (47250) - http://www.bohemiancoding.com/sketch -->
    <title>icon</title>
    <desc>Created with Sketch.</desc>
    <defs></defs>
    <g id="Page-1" stroke="none" stroke-width="1" fill="none" fill-rule="evenodd">
        <g id="icon" fill-rule="nonzero">
            <path d="M458.7,0 L53.3,0 C23.9,0 0,23.9 0,53.3 L0,458.6 C0,488.1 23.9,512 53.3,512 L458.6,512 C488.1,512 511.9,488.1 511.9,458.7 L511.9,53.3 C512,23.9 488.1,0 458.7,0 Z" id="Shape" fill="#DAAC01"></path>
            <path d="M390.4,133.8 L121.6,133.8 L121.6,317.1 L133.8,329.3 L109.4,329.3 L109.4,350.1 L137.5,378.2 L271.2,512 L458.7,512 C488.2,512 512,488.1 512,458.7 L512,255.3 L390.4,133.8 Z" id="Shape" fill-opacity="0.5" fill="#000000"></path>
            <g id="Shape" transform="translate(109.000000, 133.000000)" fill="#FFFFFF">
                <path d="M0.3,196.3 L0.3,217.1 L28.4,245.1 L265.6,245.1 L293.7,217.1 L293.7,196.3 L0.3,196.3 Z M128.7,226.9 L116.5,226.9 L116.5,214.7 L128.7,214.7 L128.7,226.9 Z M153.1,226.9 L140.9,226.9 L140.9,214.7 L153.1,214.7 L153.1,226.9 Z M177.6,226.9 L165.4,226.9 L165.4,214.7 L177.6,214.7 L177.6,226.9 Z"></path>
                <polygon points="134.9 110.8 153 110.8 159.1 74.1 141 74.1"></polygon>
                <path d="M281.4,0.8 L12.6,0.8 L12.6,184.1 L281.5,184.1 L281.5,0.8 L281.4,0.8 Z M92,49.6 C85.3,49.6 79.8,55.1 79.8,61.8 L79.8,74 C79.8,81.3 76.5,87.8 71.4,92.3 C76.5,96.8 79.8,103.3 79.8,110.6 L79.8,123 C79.8,129.7 85.3,135.2 92,135.2 L92,147.4 C78.5,147.4 67.6,136.4 67.6,123 L67.6,110.8 C67.6,104.1 62.1,98.6 55.4,98.6 L55.4,86.4 C62.1,86.4 67.6,80.9 67.6,74.2 L67.6,62 C67.6,48.5 78.6,37.6 92,37.6 L92,49.6 Z M189.8,74.1 L171.6,74.1 L165.5,110.8 L189.9,110.8 L189.9,123 L163.5,123 L159.3,148.4 L147.2,146.4 L151,123 L132.8,123 L128.6,148.4 L116.5,146.4 L120.4,123 L104.2,123 L104.2,110.8 L122.4,110.8 L128.5,74.1 L104.1,74.1 L104.1,61.9 L130.5,61.9 L134.7,36.5 L146.8,38.5 L142.9,61.9 L161.1,61.9 L165.3,36.5 L177.4,38.5 L173.5,61.9 L189.7,61.9 L189.7,74.1 L189.8,74.1 Z M238.7,98.5 C232,98.5 226.5,104 226.5,110.7 L226.5,123 C226.5,136.5 215.5,147.4 202.1,147.4 L202.1,135.2 C208.8,135.2 214.3,129.7 214.3,123 L214.3,110.8 C214.3,103.5 217.6,97 222.7,92.5 C217.6,88 214.3,81.5 214.3,74.2 L214.3,62 C214.3,55.3 208.8,49.8 202.1,49.8 L202.1,37.6 C215.6,37.6 226.5,48.6 226.5,62 L226.5,74.2 C226.5,80.9 232,86.4 238.7,86.4 L238.7,98.5 Z"></path>
            </g>
        </g>
    </g>
</svg>